<svg width="146" height="54" viewBox="0 0 146 54" fill="none" xmlns="http://www.w3.org/2000/svg">
<path d="M22.9362 23.0386C25.6529 17.3032 33.0953 15.0179 38.712 13.2732C45.1408 11.2761 51.8125 10.2203 58.541 10.0476C59.5977 10.0206 60.2245 5.92732 60.3779 5.18748C60.4603 4.78913 61.3476 -0.0184252 60.6237 5.31284e-05C53.4222 0.184836 46.2864 1.38557 39.4487 3.6584C33.4699 5.64589 26.7967 8.14934 23.9316 14.1974C22.9398 16.2915 22.4707 18.7225 22.2213 21.0124C22.1631 21.5461 22.0583 24.8921 22.9362 23.0386Z" fill="#409EDC"/>
<path d="M10.9278 38.8091C13.6445 33.0737 21.0868 30.7884 26.7036 29.0437C33.1324 27.0466 39.8041 25.9908 46.5325 25.8181C47.5892 25.7911 48.2161 21.6978 48.3695 20.958C48.4519 20.5596 49.3391 15.7521 48.6153 15.7706C41.4138 15.9553 34.2779 17.1561 27.4403 19.4289C21.4614 21.4164 14.7883 23.9198 11.9232 29.9679C10.9314 32.062 10.4622 34.493 10.2129 36.7829C10.1547 37.3166 10.0498 40.6626 10.9278 38.8091Z" fill="#409EDC"/>
<path d="M0.752035 53.4458C3.46874 47.7104 10.9111 45.4252 16.5278 43.6804C22.9566 41.6833 29.6283 40.6276 36.3568 40.4549C37.4135 40.4278 38.0403 36.3346 38.1937 35.5947C38.2761 35.1964 39.1634 30.3888 38.4395 30.4073C31.238 30.5921 24.1021 31.7928 17.2645 34.0656C11.2856 36.0531 4.6125 38.5566 1.74739 44.6047C0.755603 46.6987 0.286467 49.1297 0.0370943 51.4196C-0.0210571 51.9533 -0.125944 55.2993 0.752035 53.4458Z" fill="#409EDC"/>
<path d="M76.9689 15.4965V41.51C76.9689 41.6877 76.8241 41.8323 76.6453 41.8323H71.2291C71.1245 41.8323 71.0264 41.7822 70.9658 41.6973L61.8867 29.0283C61.7029 28.7717 61.2966 28.9039 61.3001 29.2188L61.4247 41.5068C61.4264 41.6863 61.2812 41.8323 61.1011 41.8323H55.2174C55.0391 41.8323 54.8939 41.6877 54.8939 41.51V15.4961C54.8939 15.3185 55.0391 15.1738 55.2174 15.1738H60.5866C60.6947 15.1738 60.7957 15.2278 60.856 15.3177L69.9704 28.9626C70.1484 29.2294 70.5662 29.1015 70.5633 28.781L70.4381 15.4993C70.4363 15.3199 70.5819 15.1738 70.7621 15.1738H76.6457C76.8244 15.1738 76.9696 15.3185 76.9693 15.4965H76.9689Z" fill="#409EDC"/>
<path d="M98.1867 15.4897V31.1309C98.1867 35.6453 97.1824 37.5909 95.5624 39.2674C93.7201 41.171 91.5792 42.1362 88.5607 42.1362C87.0723 42.1362 83.6827 41.8601 81.3485 39.3022C79.275 36.9974 78.8041 35.1375 78.7338 32.0854C78.7299 31.8985 78.8815 31.7453 79.0691 31.7453H84.9003C85.0787 31.7453 85.226 31.8832 85.2357 32.0605C85.2731 32.7652 85.3762 33.5544 85.6624 34.2523L85.6638 34.2562L85.6659 34.2602C86.1886 35.441 87.139 36.0398 88.4904 36.0398C89.8418 36.0398 90.845 35.4865 91.2806 34.4005C91.6962 33.4183 91.6962 32.1504 91.6962 31.1313V15.4862C91.6962 15.3028 91.8457 15.1543 92.0294 15.1543H97.8492C98.0358 15.1543 98.1867 15.3046 98.1867 15.4901V15.4897Z" fill="#409EDC"/>
<path d="M123.182 41.9378H116.568C116.393 41.9378 116.238 41.8258 116.183 41.6602L114.788 37.4458C114.743 37.31 114.616 37.219 114.473 37.219H106.289C106.144 37.219 106.015 37.3114 105.97 37.4482L104.559 41.7118C104.514 41.8468 104.388 41.9381 104.245 41.9381H97.5773C97.3455 41.9381 97.1853 41.7064 97.267 41.4904L107.104 15.4889C107.166 15.3258 107.323 15.2178 107.497 15.2178H113.295C113.45 15.2178 113.589 15.313 113.643 15.4573L123.493 41.4914C123.574 41.7071 123.414 41.9381 123.182 41.9381V41.9378ZM112.761 31.3234L110.702 25.1026C110.6 24.7927 110.16 24.7927 110.057 25.1026L107.994 31.3337C107.924 31.5455 108.082 31.764 108.306 31.764H112.442C112.671 31.764 112.833 31.5402 112.761 31.3234H112.761Z" fill="#409EDC"/>
<path d="M141.054 36.0194L140.569 41.511C140.569 41.6887 140.424 41.8333 140.245 41.8333H123.566C123.332 41.8333 123.176 41.5931 123.271 41.3802L125.081 37.3186L125.083 37.3147L125.085 37.3111L131.52 21.7566C131.607 21.5448 131.451 21.3117 131.22 21.3117H123.516C123.338 21.3117 123.193 21.1671 123.193 20.9891L123.678 15.4975C123.678 15.3194 123.824 15.1748 124.002 15.1748H140.749C140.974 15.1748 141.13 15.398 141.052 15.6083L139.16 20.7414L133.389 35.2561C133.305 35.4679 133.461 35.6971 133.69 35.6971H140.731C140.91 35.6971 141.055 35.8414 141.055 36.0198L141.054 36.0194Z" fill="#409EDC"/>
<path d="M144.676 42.2442C143.909 42.2442 143.348 41.6888 143.348 40.9216C143.348 40.1544 143.906 39.6025 144.676 39.6025C145.446 39.6025 146 40.1615 146 40.9216C146 41.6817 145.442 42.2442 144.676 42.2442ZM144.676 42.1017C145.354 42.1017 145.849 41.6049 145.849 40.9216C145.849 40.2383 145.354 39.7415 144.676 39.7415C143.997 39.7415 143.495 40.2383 143.495 40.9216C143.495 41.6049 143.99 42.1017 144.676 42.1017ZM145.12 41.32C145.006 41.4369 144.848 41.5026 144.687 41.5026C144.36 41.4991 144.1 41.2908 144.1 40.9181C144.1 40.5453 144.368 40.3335 144.683 40.3335C144.852 40.3299 145.01 40.3918 145.116 40.5087L145.23 40.3737C145.094 40.2457 144.907 40.1764 144.687 40.1764C144.247 40.1764 143.92 40.4906 143.92 40.9181C143.92 41.3455 144.228 41.6561 144.683 41.6561C144.903 41.6561 145.094 41.5719 145.229 41.4404L145.12 41.32Z" fill="#409EDC"/>
</svg>
