<svg width="150" height="55" viewBox="0 0 150 55" fill="none" xmlns="http://www.w3.org/2000/svg">
<path d="M23.5663 23.5795C26.3574 17.8954 34.0037 15.6306 39.7744 13.9014C46.3794 11.9222 53.2339 10.8759 60.1468 10.7048C61.2324 10.678 61.8764 6.62135 62.034 5.88812C62.1187 5.49334 63.0303 0.72881 62.2866 0.747123C54.8877 0.930252 47.5563 2.12024 40.5313 4.37273C34.3886 6.34243 27.5326 8.82348 24.5889 14.8174C23.57 16.8928 23.088 19.302 22.8318 21.5714C22.772 22.1003 22.6642 25.4164 23.5663 23.5795Z" fill="#F8F8F8"/>
<path d="M11.2258 39.2084C14.017 33.5243 21.6633 31.2595 27.434 29.5303C34.0389 27.5511 40.8935 26.5048 47.8063 26.3337C48.892 26.3069 49.536 22.2503 49.6936 21.517C49.7783 21.1222 50.6898 16.3577 49.9461 16.376C42.5473 16.5592 35.2159 17.7491 28.1909 20.0016C22.0481 21.9713 15.1921 24.4524 12.2485 30.4463C11.2295 32.5217 10.7475 34.9309 10.4913 37.2003C10.4316 37.7293 10.3238 41.0453 11.2258 39.2084Z" fill="#F8F8F8"/>
<path d="M0.772833 53.7152C3.56399 48.0312 11.2103 45.7663 16.981 44.0372C23.5859 42.058 30.4405 41.0117 37.3533 40.8405C38.439 40.8138 39.083 36.7571 39.2406 36.0239C39.3253 35.6291 40.2368 30.8646 39.4931 30.8829C32.0943 31.066 24.7629 32.256 17.7379 34.5085C11.5951 36.4782 4.7391 38.9592 1.79546 44.9532C0.776499 47.0285 0.294506 49.4377 0.038299 51.7071C-0.0214461 52.2361 -0.129207 55.5521 0.772833 53.7152Z" fill="#F8F8F8"/>
<path d="M79.0798 16.1049V41.8857C79.0798 42.0617 78.931 42.2051 78.7474 42.2051H73.1826C73.0752 42.2051 72.9745 42.1554 72.9121 42.0713L63.5842 29.5156C63.3955 29.2614 62.978 29.3924 62.9816 29.7044L63.1096 41.8825C63.1114 42.0603 62.9622 42.2051 62.7771 42.2051H56.7322C56.549 42.2051 56.3998 42.0617 56.3998 41.8857V16.1046C56.3998 15.9285 56.549 15.7852 56.7322 15.7852H62.2486C62.3596 15.7852 62.4634 15.8387 62.5253 15.9278L71.8895 29.4505C72.0724 29.715 72.5016 29.5882 72.4987 29.2705L72.37 16.1077C72.3682 15.9299 72.5178 15.7852 72.7029 15.7852H78.7477C78.9314 15.7852 79.0805 15.9285 79.0802 16.1049H79.0798Z" fill="#F8F8F8"/>
<path d="M100.88 16.0991V31.6002C100.88 36.0742 99.8477 38.0024 98.1833 39.6639C96.2905 41.5505 94.0909 42.507 90.9897 42.507C89.4605 42.507 85.9781 42.2334 83.5798 39.6984C81.4495 37.4142 80.9657 35.571 80.8935 32.5462C80.8895 32.3609 81.0453 32.2091 81.2381 32.2091H87.2291C87.4123 32.2091 87.5637 32.3458 87.5736 32.5215C87.6121 33.2199 87.718 34.0021 88.012 34.6937L88.0134 34.6976L88.0156 34.7015C88.5526 35.8717 89.5291 36.4651 90.9175 36.4651C92.3059 36.4651 93.3366 35.9168 93.7842 34.8406C94.2112 33.8672 94.2112 32.6106 94.2112 31.6006V16.0955C94.2112 15.9138 94.3647 15.7666 94.5535 15.7666H100.533C100.724 15.7666 100.88 15.9156 100.88 16.0994V16.0991Z" fill="#F8F8F8"/>
<path d="M126.56 42.3099H119.765C119.585 42.3099 119.425 42.199 119.369 42.0349L117.936 37.8581C117.89 37.7236 117.759 37.6335 117.612 37.6335H109.203C109.054 37.6335 108.922 37.725 108.876 37.8606L107.426 42.086C107.38 42.2198 107.25 42.3103 107.104 42.3103H100.253C100.015 42.3103 99.8504 42.0807 99.9343 41.8666L110.041 16.0978C110.104 15.9362 110.265 15.8291 110.445 15.8291H116.402C116.561 15.8291 116.704 15.9235 116.759 16.0665L126.879 41.8676C126.963 42.0814 126.798 42.3103 126.56 42.3103V42.3099ZM115.853 31.7906L113.738 25.6255C113.632 25.3184 113.18 25.3184 113.075 25.6255L110.955 31.8008C110.883 32.0107 111.046 32.2273 111.276 32.2273H115.525C115.76 32.2273 115.927 32.0054 115.853 31.7906H115.853Z" fill="#F8F8F8"/>
<path d="M144.919 36.4451L144.421 41.8876C144.421 42.0637 144.272 42.207 144.088 42.207H126.952C126.712 42.207 126.551 41.969 126.649 41.758L128.509 37.7327L128.51 37.7288L128.512 37.7253L135.123 22.31C135.213 22.1001 135.053 21.8691 134.816 21.8691H126.901C126.717 21.8691 126.568 21.7258 126.568 21.5493L127.067 16.1069C127.067 15.9304 127.217 15.7871 127.4 15.7871H144.606C144.837 15.7871 144.997 16.0083 144.918 16.2168L142.973 21.3039L137.044 35.6887C136.958 35.8986 137.118 36.1257 137.353 36.1257H144.588C144.771 36.1257 144.92 36.2687 144.92 36.4455L144.919 36.4451Z" fill="#F8F8F8"/>
<path d="M148.639 42.6141C147.851 42.6141 147.275 42.0637 147.275 41.3034C147.275 40.543 147.848 39.9961 148.639 39.9961C149.43 39.9961 149.999 40.5501 149.999 41.3034C149.999 42.0566 149.426 42.6141 148.639 42.6141ZM148.639 42.4729C149.336 42.4729 149.845 41.9806 149.845 41.3034C149.845 40.6261 149.336 40.1338 148.639 40.1338C147.942 40.1338 147.426 40.6261 147.426 41.3034C147.426 41.9806 147.934 42.4729 148.639 42.4729ZM149.095 41.6981C148.978 41.814 148.816 41.8792 148.651 41.8792C148.315 41.8756 148.048 41.6693 148.048 41.2998C148.048 40.9304 148.322 40.7205 148.647 40.7205C148.82 40.717 148.982 40.7783 149.091 40.8941L149.208 40.7603C149.069 40.6335 148.877 40.5649 148.651 40.5649C148.198 40.5649 147.863 40.8762 147.863 41.2998C147.863 41.7235 148.18 42.0313 148.646 42.0313C148.873 42.0313 149.069 41.9478 149.208 41.8175L149.095 41.6981Z" fill="#F8F8F8"/>
</svg>
